PathFileType	4	(X/Y/Z)	C:/Users/beibeiliu/ov580/test_trc/User2\sequence.43_training_dense_right.trc
DataRate	CameraRate	NumFrames	NumMarkers	Units	OrigDataRate	OrigDataStartFrame	OrigNumFrames
120	120	14	19	mm	120	27	107
Frame#	Time	ThumbCMC			ThumbMCP			ThumbIP			ThumbTip			IndexMCP			IndexPIP			IndexTip			MiddleMCP			MiddlePIP			MiddleTip			RingMCP			RingPIP			RingTip			PinkyMCP			PinkyPIP			PinkyTip			BackHand1			BackHand2			BackHand3	
		X0	Y0	Z0	X1	Y1	Z1	X2	Y2	Z2	X3	Y3	Z3	X4	Y4	Z4	X5	Y5	Z5	X6	Y6	Z6	X7	Y7	Z7	X8	Y8	Z8	X9	Y9	Z9	X10	Y10	Z10	X11	Y11	Z11	X12	Y12	Z12	X13	Y13	Z13	X14	Y14	Z14	X15	Y15	Z15	X16	Y16	Z16	X17	Y17	Z17	X18	Y18	Z18	
26	0.216667	32.9074	31.2148	13.8959	7.59936	38.5629	6.23	-22.9224	48.7519	-4.78431	-45.5663	53.8518	-14.8839	27.4622	76.1504	-52.173	20.491	90.6906	-73.9721	7.08981	106.88	-95.5043	54.012	82.3856	-63.9838	49.4183	99.174	-93.6994	46.7398	115.017	-117.132	78.3503	75.5112	-70.8855	78.057	88.6426	-92.4162	81.0138	105.254	-113.974	108.205	49.791	-67.6907	111.615	58.8048	-89.3722	122.046	69.6805	-105.466	88.3629	51.7724	-21.018	99.841	42.77	8.58914	61.7135	53.6549	6.50243	
27	0.225	31.8163	30.4109	18.2803	5.32154	37.5489	9.0025	-25.0022	50.8239	-9.30527	-45.9002	51.46	-14.7578	29.3133	77.5227	-55.1688	18.5377	90.1445	-74.0175	7.46155	106.629	-96.5435	53.7935	82.6652	-65.6347	50.0781	98.6021	-92.5939	41.6454	116.543	-118.685	82.3819	71.8661	-67.5658	78.2387	87.04	-90.8589	82.3565	104.023	-114.307	107.149	49.7937	-65.6898	117.088	55.3048	-85.6651	122.537	72.0852	-106.41	89.6289	52.9775	-21.915	97.2865	44.1546	13.523	60.3741	54.7394	2.51315	
28	0.233333	31.5587	32.9576	16.6592	4.16097	41.8824	7.20894	-22.2595	49.924	-6.39335	-45.8321	53.65	-13.9492	25.4976	82.2132	-52.9892	16.4893	93.3691	-71.7209	6.439	109.452	-97.7122	52.4483	86.8663	-63.9813	45.9287	100.776	-87.8164	41.507	119.727	-114.515	79.8609	77.6204	-68.0973	80.5588	90.6585	-88.3743	79.1336	106.432	-110.083	105.702	53.7132	-64.4362	114.258	62.3744	-85.5839	124.585	73.5619	-100.636	88.2059	55.4765	-16.8431	98.6449	45.2423	14.1988	57.2718	56.9416	4.82541	
29	0.241667	33.9259	34.7676	21.4684	5.78023	41.9927	12.7229	-25.8875	54.8041	-1.1283	-45.874	60.157	-12.7885	27.8833	88.1633	-50.5414	17.6185	99.3971	-67.8344	8.63666	112.209	-91.2557	53.0205	94.6178	-59.5044	46.127	109.276	-85.0005	36.2814	127.612	-109.722	80.2177	82.4469	-61.8948	77.5691	98.8837	-84.9123	74.2922	115.834	-106.829	103.88	60.1403	-59.1858	113.961	71.0178	-82.0339	123.413	82.5437	-95.7644	88.9271	60.5711	-14.3653	100.476	49.0957	17.0099	58.0604	58.0182	12.8428	
30	0.25	30.9935	40.4554	25.2214	3.70471	48.4606	17.9061	-23.9281	57.9972	4.34329	-43.8045	62.6967	-6.0913	23.4259	93.8278	-40.117	17.1614	106.742	-64.9208	7.70146	117.055	-87.1302	50.8213	100.862	-52.237	42.7289	117.762	-79.267	35.4884	131.182	-106.711	77.5353	92.5308	-57.1793	72.5833	107.201	-78.9084	70.8466	121.413	-107.904	100.067	69.9417	-55.1341	106.628	82.3519	-77.2463	116.057	94.9199	-91.4767	88.9761	64.6714	-9.17185	97.0876	52.5521	18.7506	59.1295	62.9536	18.0255	
31	0.258333	31.1468	43.8511	30.1336	1.51491	54.9664	21.1407	-24.999	65.416	9.28343	-47.7172	72.1864	-2.04593	27.3418	99.1656	-34.9656	14.1875	112.031	-61.6285	6.77945	116.074	-89.8697	51.2101	108.655	-47.3008	43.6359	121.562	-76.4433	29.7993	127.023	-109.882	74.1853	99.1022	-52.4227	70.9872	111.738	-78.373	59.6983	116.853	-104.875	100.643	74.8831	-49.5757	104.957	88.6072	-70.9131	111.033	104.692	-89.3916	85.8581	69.3726	-5.03687	95.4715	56.2191	26.0351	61.3761	66.9779	20.7595	
32	0.266667	29.5545	45.4613	37.0247	0.420849	58.8859	25.8635	-27.4579	72.4761	13.6257	-46.396	79.1244	-0.800504	27.3767	101.818	-31.0452	11.6397	111.329	-62.4874	5.18434	102.945	-88.3348	51.932	107.009	-42.8822	39.9296	116.552	-78.69	31.347	100.016	-111.36	73.8345	99.563	-47.7668	65.7749	110.173	-76.3967	52.015	97.4081	-106.932	97.4918	76.5734	-44.3729	107.008	90.0263	-67.1313	108.551	107.319	-90.3671	89.0952	70.8006	-1.17246	98.6149	56.0972	24.3078	60.9177	71.027	21.9585	
33	0.275	30.309	45.8249	36.3517	2.76638	55.847	29.9733	-25.4224	70.0937	16.4944	-46.3123	81.6693	2.31251	24.7227	102.87	-33.6332	15.4928	103.814	-63.6009	11.1073	78.0363	-85.1831	54.4042	102.342	-45.3925	39.3721	102.451	-81.4304	26.8901	69.6449	-96.293	73.503	98.6905	-51.4825	63.2637	100.16	-80.1371	49.0617	73.2438	-95.503	98.1144	76.6751	-45.1854	104.649	89.1722	-66.7631	109.634	105.405	-90.1216	88.2362	70.9582	0.979541	95.7561	56.8424	25.7024	58.1949	68.0295	27.698	
34	0.283333	31.2477	48.2964	34.9508	2.16971	60.2355	29.4921	-21.1868	71.3652	16.7688	-45.9292	83.5316	5.78757	30.3889	99.0086	-36.0162	13.6782	90.5373	-66.6808	12.431	58.1049	-68.2828	46.6578	101.972	-49.644	35.3079	87.8655	-79.5029	28.2982	47.1337	-70.315	70.0929	95.2808	-52.5749	59.7211	89.0688	-80.2131	42.7894	53.3173	-75.995	97.3347	76.0685	-46.0435	103.842	88.0135	-69.5505	105.006	102.709	-90.0765	89.9344	67.4946	0.456433	96.9688	53.2048	28.0045	59.8344	70.0915	25.6836	
35	0.291667	32.4751	47.9157	38.0882	1.71792	62.832	29.9112	-25.7967	74.4881	20.7539	-43.7722	83.0527	5.95546	23.1578	98.3455	-39.5434	16.7439	80.9851	-63.3605	14.4178	47.7894	-51.0691	45.1183	97.0491	-54.1912	32.3817	72.3175	-76.5467	34.5729	39.4231	-52.8861	70.8681	90.2425	-56.7635	51.6162	75.8325	-80.1957	46.5206	43.3057	-60.9878	97.2686	78.7288	-48.4904	100.722	86.0852	-69.005	104.9	98.953	-93.4464	87.1389	72.5727	2.49827	97.9425	54.0903	30.0667	62.996	71.7736	26.536	
36	0.3	30.5694	51.3822	35.046	3.58022	59.4065	29.7119	-27.642	77.1497	17.2108	-47.1399	82.5101	7.11769	25.534	92.5744	-43.0038	12.7985	70.3422	-62.654	21.8807	43.101	-42.2029	40.7622	91.0456	-55.1512	32.0804	63.2858	-73.2983	32.9217	36.0698	-40.6901	67.0475	85.7162	-59.7084	50.6117	64.5058	-79.1709	46.7192	40.9421	-52.3051	98.6326	72.8105	-48.6941	104.765	84.8229	-77.0503	105.318	94.2844	-93.1557	86.4496	70.946	-0.231151	94.949	58.4509	25.914	62.0798	70.341	27.6218	
37	0.308333	31.8553	45.4301	33.9109	1.74089	56.774	28.264	-29.1703	73.813	14.2868	-48.5852	79.2761	3.51597	24.358	84.9041	-44.9421	16.4721	61.2779	-64.4151	20.1432	36.9512	-36.0418	42.6989	83.1067	-59.5795	34.276	51.5749	-73.5367	39.0317	32.2929	-37.1051	67.076	79.2223	-64.2671	49.6841	54.4272	-80.0067	45.7871	36.4332	-51.2165	99.9519	68.7422	-54.7126	104.338	77.5182	-81.0228	105.779	88.0915	-102.03	88.6029	68.9377	-2.01926	98.5052	56.2134	22.2889	60.2508	71.0235	20.4373	
38	0.316667	31.9344	43.1842	33.4273	3.44701	54.2586	25.5233	-26.635	70.3613	11.8698	-46.3841	73.5227	2.96955	22.5039	78.1976	-50.8812	14.0366	51.5009	-63.7383	24.3804	33.9736	-33.5905	45.5481	75.3245	-61.8652	31.3461	44.8522	-72.8893	36.1295	28.0485	-34.4131	63.619	71.8253	-69.7682	51.9375	48.4558	-83.2488	46.0489	31.4755	-49.8683	98.5181	62.992	-55.8614	104.195	67.2691	-80.1696	105.354	77.2755	-103.109	87.6392	63.8731	-5.38194	95.574	53.104	21.0884	62.0012	68.3409	19.3507	
39	0.325	29.2551	44.1633	34.9201	3.28236	57.4444	22.1566	-23.0728	69.9571	8.66052	-44.63	73.4285	1.26508	22.3809	78.5698	-45.3844	12.238	52.2117	-64.6626	22.662	31.9777	-34.3918	40.8482	74.3529	-62.8636	32.5491	39.5269	-71.4329	40.094	27.6341	-33.4145	66.0555	68.8628	-72.0903	49.9055	45.3558	-81.6593	47.861	30.461	-47.4148	96.7438	63.7447	-57.9927	104.369	66.407	-83.9474	107.626	73.5217	-107.917	90.5081	63.991	-7.65586	99.4443	49.6859	21.6745	60.8306	68.4001	19.4864	
